<svg width="200" height="200" viewBox="0 0 200 200" fill="none" xmlns="http://www.w3.org/2000/svg">
<path d="M0 50C0 22.3858 22.3858 0 50 0H150C177.614 0 200 22.3858 200 50V150C200 177.614 177.614 200 150 200H50C22.3858 200 0 177.614 0 150V50Z" fill="url(#paint0_linear)"/>
<path d="M0 50C0 22.3858 22.3858 0 50 0H135C162.614 0 185 22.3858 185 50V150C185 177.614 162.614 200 135 200H50C22.3858 200 0 177.614 0 150V50Z" fill="url(#paint1_linear)"/>
<path d="M0 50C0 22.3858 22.3858 0 50 0H120C147.614 0 170 22.3858 170 50V150C170 177.614 147.614 200 120 200H50C22.3858 200 0 177.614 0 150V50Z" fill="url(#paint2_linear)"/>
<rect x="40.0001" y="55" width="90" height="90" rx="20" stroke="white" stroke-width="10"/>
<line x1="105" y1="75.0004" x2="65.0001" y2="75.0004" stroke="white" stroke-width="10" stroke-linecap="round"/>
<line x1="105" y1="100" x2="65.0001" y2="100" stroke="white" stroke-width="10" stroke-linecap="round"/>
<line x1="105" y1="125" x2="65.0001" y2="125" stroke="white" stroke-width="10" stroke-linecap="round"/>
<defs>
<linearGradient id="paint0_linear" x1="100" y1="0" x2="100" y2="200" gradientUnits="userSpaceOnUse">
<stop stop-color="#80FF00"/>
<stop offset="1" stop-color="#00BE60"/>
</linearGradient>
<linearGradient id="paint1_linear" x1="92.5" y1="0" x2="92.5" y2="200" gradientUnits="userSpaceOnUse">
<stop stop-color="#FF8000"/>
<stop offset="0.760417" stop-color="#BE0060"/>
</linearGradient>
<linearGradient id="paint2_linear" x1="85" y1="0" x2="85" y2="200" gradientUnits="userSpaceOnUse">
<stop stop-color="#0080FF"/>
<stop offset="0.760417" stop-color="#6000BE"/>
</linearGradient>
</defs>
</svg>
