<svg width="460" height="200" viewBox="0 0 460 200" fill="none" xmlns="http://www.w3.org/2000/svg">
<g clip-path="url(#clip0)">
<path d="M0 50C0 22.3858 22.3858 0 50 0H410C437.614 0 460 22.3858 460 50V150C460 177.614 437.614 200 410 200H50C22.3858 200 0 177.614 0 150V50Z" fill="url(#paint0_linear)"/>
<path d="M0 50C0 22.3858 22.3858 0 50 0H385C412.614 0 435 22.3858 435 50V150C435 177.614 412.614 200 385 200H50C22.3858 200 0 177.614 0 150V50Z" fill="url(#paint1_linear)"/>
<path d="M0 50C0 22.3858 22.3858 0 50 0H360C387.614 0 410 22.3858 410 50V150C410 177.614 387.614 200 360 200H50C22.3858 200 0 177.614 0 150V50Z" fill="url(#paint2_linear)"/>
<path d="M85.5 67C87.3 67 88.7667 67.5333 89.9 68.6C91.0333 69.6667 91.6 71.0667 91.6 72.8C91.6 74.5333 91.0333 75.9333 89.9 77C88.7667 78 87.3 78.5 85.5 78.5H69.8V130.9C69.8 132.633 69.1667 134.1 67.9 135.3C66.6333 136.433 65.0667 137 63.2 137C61.3333 137 59.8 136.433 58.6 135.3C57.4 134.1 56.8 132.633 56.8 130.9V78.5H41.1C39.3 78.5 37.8333 77.9667 36.7 76.9C35.5667 75.8333 35 74.4333 35 72.7C35 71.0333 35.5667 69.6667 36.7 68.6C37.9 67.5333 39.3667 67 41.1 67H85.5ZM134.437 82.5C136.17 82.5 137.603 83.0667 138.737 84.2C139.87 85.3333 140.437 86.8 140.437 88.6V130.9C140.437 132.633 139.87 134.1 138.737 135.3C137.603 136.433 136.17 137 134.437 137C132.703 137 131.27 136.433 130.137 135.3C129.07 134.167 128.503 132.733 128.437 131C126.77 132.933 124.503 134.6 121.637 136C118.837 137.333 115.87 138 112.737 138C108.137 138 103.97 136.833 100.237 134.5C96.5034 132.1 93.5367 128.8 91.3367 124.6C89.2034 120.4 88.1367 115.633 88.1367 110.3C88.1367 104.967 89.2034 100.2 91.3367 96C93.4701 91.7333 96.3701 88.4333 100.037 86.1C103.77 83.7 107.87 82.5 112.337 82.5C115.537 82.5 118.537 83.1 121.337 84.3C124.137 85.4333 126.503 86.9 128.437 88.7V88.6C128.437 86.8667 129.003 85.4333 130.137 84.3C131.27 83.1 132.703 82.5 134.437 82.5ZM114.237 127C118.57 127 122.103 125.433 124.837 122.3C127.57 119.1 128.937 115.1 128.937 110.3C128.937 105.5 127.57 101.5 124.837 98.3C122.103 95.1 118.57 93.5 114.237 93.5C109.97 93.5 106.47 95.1 103.737 98.3C101.003 101.5 99.6367 105.5 99.6367 110.3C99.6367 115.1 100.97 119.1 103.637 122.3C106.37 125.433 109.903 127 114.237 127ZM150.341 128.7C149.741 127.9 149.441 126.9 149.441 125.7C149.441 123.967 150.308 122.5 152.041 121.3C152.975 120.7 153.941 120.4 154.941 120.4C156.341 120.4 157.675 121.033 158.941 122.3C160.941 124.367 163.008 125.9 165.141 126.9C167.341 127.9 169.975 128.4 173.041 128.4C178.241 128.2 180.841 126.233 180.841 122.5C180.841 120.567 179.941 119.1 178.141 118.1C176.408 117.1 173.675 116.1 169.941 115.1C166.075 114.033 162.908 112.967 160.441 111.9C158.041 110.833 155.941 109.233 154.141 107.1C152.408 104.9 151.541 101.967 151.541 98.3C151.541 95.1 152.441 92.3333 154.241 90C156.108 87.6 158.508 85.7667 161.441 84.5C164.441 83.1667 167.608 82.5 170.941 82.5C174.341 82.5 177.741 83.1333 181.141 84.4C184.541 85.6667 187.208 87.5333 189.141 90C190.008 91.0667 190.441 92.2667 190.441 93.6C190.441 95.1333 189.808 96.4 188.541 97.4C187.608 98.1333 186.541 98.5 185.341 98.5C183.875 98.5 182.675 98.0333 181.741 97.1C180.541 95.6333 178.975 94.4667 177.041 93.6C175.175 92.7333 173.041 92.3 170.641 92.3C165.575 92.3 163.041 94.1333 163.041 97.8C163.041 99.2667 163.508 100.467 164.441 101.4C165.375 102.267 166.541 102.967 167.941 103.5C169.408 103.967 171.441 104.567 174.041 105.3C177.641 106.3 180.641 107.333 183.041 108.4C185.441 109.467 187.475 111.1 189.141 113.3C190.808 115.5 191.641 118.4 191.641 122C191.641 125.267 190.675 128.133 188.741 130.6C186.808 133 184.308 134.833 181.241 136.1C178.241 137.367 175.141 138 171.941 138C167.541 138 163.441 137.267 159.641 135.8C155.841 134.333 152.741 131.967 150.341 128.7ZM246.184 126.5C247.45 127.833 248.084 129.333 248.084 131C248.084 132.667 247.417 134.067 246.084 135.2C244.817 136.333 243.45 136.9 241.984 136.9C240.25 136.9 238.784 136.233 237.584 134.9L219.584 115.9L214.684 120.4V130.9C214.684 132.633 214.117 134.1 212.984 135.3C211.85 136.433 210.417 137 208.684 137C206.95 137 205.517 136.433 204.384 135.3C203.25 134.1 202.684 132.633 202.684 130.9V69.1C202.684 67.3667 203.25 65.9333 204.384 64.8C205.517 63.6 206.95 63 208.684 63C210.417 63 211.85 63.6 212.984 64.8C214.117 65.9333 214.684 67.3667 214.684 69.1V106.1L236.084 85.4C237.35 84.1333 238.817 83.5 240.484 83.5C241.95 83.5 243.25 84.1333 244.384 85.4C245.584 86.6 246.184 87.8333 246.184 89.1C246.184 90.7 245.384 92.2 243.784 93.6L228.684 107.5L246.184 126.5ZM269.917 130.9C269.917 132.633 269.351 134.1 268.217 135.3C267.084 136.433 265.651 137 263.917 137C262.184 137 260.751 136.433 259.617 135.3C258.484 134.1 257.917 132.633 257.917 130.9V89.6C257.917 87.8667 258.484 86.4333 259.617 85.3C260.751 84.1 262.184 83.5 263.917 83.5C265.651 83.5 267.084 84.1 268.217 85.3C269.351 86.4333 269.917 87.8667 269.917 89.6V130.9ZM263.817 77C261.551 77 259.951 76.6333 259.017 75.9C258.084 75.1667 257.617 73.8667 257.617 72V70.1C257.617 68.2333 258.117 66.9333 259.117 66.2C260.117 65.4667 261.717 65.1 263.917 65.1C266.251 65.1 267.884 65.4667 268.817 66.2C269.751 66.9333 270.217 68.2333 270.217 70.1V72C270.217 73.9333 269.717 75.2667 268.717 76C267.784 76.6667 266.151 77 263.817 77ZM330.25 109C330.183 110.6 329.55 111.9 328.35 112.9C327.15 113.9 325.75 114.4 324.15 114.4H291.15C291.95 118.333 293.783 121.433 296.65 123.7C299.517 125.9 302.75 127 306.35 127C309.083 127 311.217 126.767 312.75 126.3C314.283 125.767 315.483 125.233 316.35 124.7C317.283 124.1 317.917 123.7 318.25 123.5C319.45 122.9 320.583 122.6 321.65 122.6C323.05 122.6 324.25 123.1 325.25 124.1C326.25 125.1 326.75 126.267 326.75 127.6C326.75 129.4 325.817 131.033 323.95 132.5C322.083 134.033 319.583 135.333 316.45 136.4C313.317 137.467 310.15 138 306.95 138C301.35 138 296.45 136.833 292.25 134.5C288.117 132.167 284.917 128.967 282.65 124.9C280.383 120.767 279.25 116.133 279.25 111C279.25 105.267 280.45 100.233 282.85 95.9C285.25 91.5667 288.417 88.2667 292.35 86C296.283 83.6667 300.483 82.5 304.95 82.5C309.35 82.5 313.483 83.7 317.35 86.1C321.283 88.5 324.417 91.7333 326.75 95.8C329.083 99.8667 330.25 104.267 330.25 109ZM304.95 93.5C297.217 93.5 292.65 97.1333 291.25 104.4H317.45V103.7C317.183 100.9 315.817 98.5 313.35 96.5C310.883 94.5 308.083 93.5 304.95 93.5ZM368.058 82.5C370.058 82.5 371.724 83.0667 373.058 84.2C374.458 85.3333 375.158 86.6667 375.158 88.2C375.158 90.2667 374.624 91.8333 373.558 92.9C372.491 93.9 371.224 94.4 369.758 94.4C368.758 94.4 367.624 94.1667 366.358 93.7C366.158 93.6333 365.691 93.5 364.958 93.3C364.291 93.1 363.558 93 362.758 93C361.024 93 359.358 93.5333 357.758 94.6C356.158 95.6667 354.824 97.3 353.758 99.5C352.758 101.633 352.258 104.2 352.258 107.2V130.9C352.258 132.633 351.691 134.1 350.558 135.3C349.424 136.433 347.991 137 346.258 137C344.524 137 343.091 136.433 341.958 135.3C340.824 134.1 340.258 132.633 340.258 130.9V89.6C340.258 87.8667 340.824 86.4333 341.958 85.3C343.091 84.1 344.524 83.5 346.258 83.5C347.991 83.5 349.424 84.1 350.558 85.3C351.691 86.4333 352.258 87.8667 352.258 89.6V90.9C353.791 88.1667 355.991 86.1 358.858 84.7C361.724 83.2333 364.791 82.5 368.058 82.5Z" fill="white"/>
</g>
<defs>
<linearGradient id="paint0_linear" x1="230" y1="0" x2="230" y2="200" gradientUnits="userSpaceOnUse">
<stop stop-color="#80FF00"/>
<stop offset="1" stop-color="#00BE60"/>
</linearGradient>
<linearGradient id="paint1_linear" x1="217.5" y1="0" x2="217.5" y2="200" gradientUnits="userSpaceOnUse">
<stop stop-color="#FF8000"/>
<stop offset="0.760417" stop-color="#BE0060"/>
</linearGradient>
<linearGradient id="paint2_linear" x1="205" y1="0" x2="205" y2="200" gradientUnits="userSpaceOnUse">
<stop stop-color="#0080FF"/>
<stop offset="0.760417" stop-color="#6000BE"/>
</linearGradient>
<clipPath id="clip0">
<rect width="460" height="200" fill="white"/>
</clipPath>
</defs>
</svg>
